<?xml version="1.0" encoding="UTF-8"?> <svg xmlns="http://www.w3.org/2000/svg" xmlns:xlink="http://www.w3.org/1999/xlink" viewBox="0 0 412.83 122.15"> <defs> <style>.cls-1{fill:url(#linear-gradient);}.cls-2{fill:#f9d35d;}.cls-3{fill:#f95951;}.cls-4{fill:#6d6f70;}.cls-5{fill:#15a3bc;}.cls-6{fill:#a5cf4f;}.cls-7{fill:#7442a2;}</style> <linearGradient id="linear-gradient" y1="97.36" x2="117.83" y2="97.36" gradientUnits="userSpaceOnUse"> <stop offset="0" stop-color="#a5cf4f"></stop> <stop offset="1" stop-color="#15a3bc"></stop> </linearGradient> </defs> <title>Asset 17</title> <g id="Layer_2" data-name="Layer 2"> <g id="Layer_1-2" data-name="Layer 1"> <path class="cls-1" d="M117.71,99.92a1.51,1.51,0,0,0-.36-1l-.29-.24-.31-.5a3.77,3.77,0,0,0-.88-1A4.84,4.84,0,0,0,114,96.07a3.76,3.76,0,0,0-1.46-.19l.24-.28a2.73,2.73,0,0,0,.12-1.6,9.45,9.45,0,0,0-.7-3,11.46,11.46,0,0,1-.73-1.9,1.8,1.8,0,0,0-.69-1,5.61,5.61,0,0,0-1.39-2.48,24.68,24.68,0,0,0-4-3.47,6.12,6.12,0,0,0-3.45-.93l-1.34-.14-1.45-1.46c-1-1-1.55-1.53-1.74-1.69s-.42-.94-.8-1.25-.82-.94-1-1.1c-5-.87-7.68-2.34-10.52-3,0,.31-.86,1-1,1.18s0-.08,0-.08a1.83,1.83,0,0,0-1.51.5c-.75.77-1.11,1.21-2.46,2.43a24,24,0,0,1-3,2.38l-.44.27a13.42,13.42,0,0,0-9.49,1.1,3.84,3.84,0,0,0-1.23,0,8.81,8.81,0,0,0-3.32,1.47c-.83.6-1.12,1.21-1.3,1.22l-.26,0s-.28,0-.08.11-.12.22-.12.22-.22.16-.56.37-.19.45-1.24.54A4.87,4.87,0,0,1,57,83.79a4.25,4.25,0,0,0-1.33-.14l-.79.07a11.69,11.69,0,0,0-2.07,1.13c-1,.62-1.67,1.24-2.2,1.28l-1.31.12a2.69,2.69,0,0,1-.71-.13A3.76,3.76,0,0,0,47.36,86a11.88,11.88,0,0,0-3.1.81,8.69,8.69,0,0,0-2.45,1.7l-.73.6-.27,0a2,2,0,0,0-.82.26,1.79,1.79,0,0,1-1,.17c-.35,0-1.58-.07-3.54-.25a22.83,22.83,0,0,0-3.66-.13,5.08,5.08,0,0,0-1,.33l-.52,0a2,2,0,0,1-.81-.2c-.37-.14-1.05.1-2.06.72a6.13,6.13,0,0,1-2.55,1c-.7.07-.73.21-1.78.3a7.3,7.3,0,0,0-3.55,1.65,18.62,18.62,0,0,0-2.94,2.64l-.95,1.15-.26,0a7.42,7.42,0,0,0-1.53.67,6.54,6.54,0,0,1-2.32.74,1.68,1.68,0,0,1-1.66-.91c-.42-.67-.71-1-.89-1l-.26,0,0,.27c0,.17,0,.43.07.78a2.43,2.43,0,0,0,.35,1,2.24,2.24,0,0,1,.36,1,6,6,0,0,0,.69,1.8,7.71,7.71,0,0,1,.67,1.52c0,.18,0,.26,0,.26l-.26,0a.23.23,0,0,0-.24.29,2.49,2.49,0,0,1,0,.26l-.81-.2a4.34,4.34,0,0,0-1.07-.16c-.18,0-1,.27-2.58.76a20.19,20.19,0,0,1-2.84.78l-.78.08-.27,0-.26,0-.26,0-.79.07c-.52,0-.78.15-.76.33s0,.26,0,.26l.29.24a2,2,0,0,0,1.33.14l1.58-.14.53,0s.12.43.38,1.29a12,12,0,0,1,.45,2.08c0,.52.07.79.07.79s0,.17,0,.52-.48.57-1.53.67a3,3,0,0,0-2,.71,1.51,1.51,0,0,0-.46.84.79.79,0,0,0,.31.5l.29.24.54.21c.37.15,1.28.42,2.72.82a10.57,10.57,0,0,1,2.46.83,1.54,1.54,0,0,1,.36,1,1.5,1.5,0,0,1-.17,1.07A.78.78,0,0,0,7,118a.77.77,0,0,0,.32.5,3,3,0,0,1,.62,1,1.66,1.66,0,0,0,.88,1l.54.22.53,0a10.94,10.94,0,0,1,1.86.1,13,13,0,0,0,2.39.05l1.31-.12,1-.1,1.57-.14a8.61,8.61,0,0,1,2.05,0l-2.54.92.29.24a3.32,3.32,0,0,0,1.36.41,7.63,7.63,0,0,0,1.86.09l3.67-.33c1.93-.17,3.11-.72,3.56-1.64s.84-1.4,1.19-1.43a7.45,7.45,0,0,1,1.6.12l1.07.17.26,0a6.91,6.91,0,0,0,1.29-.38,31.9,31.9,0,0,0,3.06-1.33,8.49,8.49,0,0,0,2.74-1.84c.48-.57.8-.86,1-.88a2,2,0,0,1,.81.19,1.86,1.86,0,0,0,.81.19.23.23,0,0,0,.24-.28c0-.18,0-.27,0-.27l.55.22a3.76,3.76,0,0,0,1.6.12,6.23,6.23,0,0,0,2.55-1,18,18,0,0,0,2.48-1.81,3.27,3.27,0,0,1,1.76-1,8.23,8.23,0,0,1,1.86.1,2.44,2.44,0,0,0,1.58-.14,2.07,2.07,0,0,1,.76-.34l.79-.07a6.22,6.22,0,0,0,2-1l2-1.24a7.39,7.39,0,0,0,1.46-1.46,7.89,7.89,0,0,1,1.45-1.45,2.32,2.32,0,0,1,1-.36c.35,0,.83.37,1.43,1.2a5.67,5.67,0,0,0,1.74,1.69c.56.3,1.3.68,2.22,1.12a4.71,4.71,0,0,0,2.43.58,4.64,4.64,0,0,0,2-.72,2.79,2.79,0,0,0,1.22-1.17l.43-1.09c.14-.37.22-.55.22-.55l.26,0L77,106a4.69,4.69,0,0,0,1.77-1,10.87,10.87,0,0,0,1.48-1.19.79.79,0,0,1,.5-.31l.26,0,.31.5a4.71,4.71,0,0,0,2,1.67,2.38,2.38,0,0,0,1.07.17,6.57,6.57,0,0,0,2-1,8,8,0,0,1,1.76-1l.53,0,.52,0c.18,0,.57.39,1.17,1.22a10.87,10.87,0,0,0,1.19,1.48l.29.24.29.24a1.06,1.06,0,0,0,.8.19l1.06-.1,1-.09.52,0,.57.48a15.4,15.4,0,0,0,1.69,1.17c.75.46,1.4.84,2,1.15a2.84,2.84,0,0,0,1.62.38,2.93,2.93,0,0,0,1.29-.38l.5-.31.34.76c.22.51.86.8,1.93.89a16.77,16.77,0,0,0,2.64,0l1.05-.09.27,0c.17,0,.5-.31,1-.88a6,6,0,0,1,1.22-1.17,2.39,2.39,0,0,1,1-.35,1,1,0,0,1,.81.19.32.32,0,0,0,.52,0,15.14,15.14,0,0,0,.93-1.41c.47-.74,1-1.59,1.63-2.52a7.82,7.82,0,0,0,1.12-2.22,4.31,4.31,0,0,0,.14-1.34C117.79,100.89,117.75,100.45,117.71,99.92ZM2.76,112.55l-.26,0,0-.26c0-.18,0-.26,0-.26l.26,0a.24.24,0,0,1,.29.24C3,112.44,2.94,112.53,2.76,112.55Zm3.2.24-.79.07H5a1,1,0,0,1-.64-.2l-.29-.24.22-.55A1.76,1.76,0,0,1,5,111l.51-.31.31.5a2.43,2.43,0,0,1,.35,1c0,.35,0,.53,0,.53Zm.55-5.61a4.6,4.6,0,0,0-.17,1.08l0,.26-.29-.24a1.54,1.54,0,0,1-.36-1c0-.53-.08-.88-.09-1.06l0-.26.55.22Q6.7,106.37,6.51,107.18Zm4.77-2.81-.21,0Zm-3.12,3.46H8.11q-.22,0-.24-.24c0-.18,0-.35,0-.52s0-.27,0-.27l.26,0c.18,0,.28.15.31.5s.05.53.05.53Zm-.22-2.36-.28-.24s.07-.1.23-.29a1.11,1.11,0,0,1,.77-.33,1.07,1.07,0,0,1,.81.19l.57.48a.77.77,0,0,1,.31.5c0,.18,0,.35.05.52a.74.74,0,0,1-.22.55l-.23.29-.29-.24-.86-.72Zm1.07,6c.15-.37.3-.56.48-.58l.26,0s-.12.63-.45.83l-.5.31Zm.57,6.29-.26,0,0-.27c0-.17,0-.35,0-.52a.23.23,0,0,1,.23-.29c.18,0,.28.16.32.5S9.75,117.74,9.58,117.75Zm1-3.53a2,2,0,0,1-.76.34H9.77a.79.79,0,0,1-.5-.22.77.77,0,0,1-.31-.5q0-.27.48-.57l1.5-.93a14.57,14.57,0,0,1,1.77-1l.76-.34-.24.29a3,3,0,0,0-.45.83A11.92,11.92,0,0,1,10.58,114.22Zm3.12,5.28h-.08a.85.85,0,0,1-.75-.46l-.31-.5.26,0,.26,0,.53,0c.35,0,.53,0,.55.21s.07.79.07.79ZM52.43,86a6.32,6.32,0,0,1,1.24-.91,4.67,4.67,0,0,1,2-.71,6.18,6.18,0,0,1,1.86.09,4,4,0,0,0,1.08.17.23.23,0,0,1,.28.24l0,.27a1.54,1.54,0,0,1-.72.85,4.08,4.08,0,0,1-1.29.38l-1.57.15-1.84.16-.34,0a1.08,1.08,0,0,1-.73-.19l-.29-.23ZM41.84,91.68l.28.25-.52,0-.53,0S41.64,91.53,41.84,91.68Zm-7.73-.62a10.38,10.38,0,0,0,1.81-.43,13,13,0,0,1,1.81-.43,1.11,1.11,0,0,1,.82.2c.19.16.1.25-.24.28l-1.84.17L35.16,91l-.79.07-.31,0ZM19.92,95l.59-.7a3.76,3.76,0,0,1,1.39-1A6.83,6.83,0,0,1,24,92.87a9.79,9.79,0,0,1,1.95,0,5.15,5.15,0,0,1,1.17.22l.33.13,0,.33-.3.19c-.21.12-.57.32-1.09.58a3.64,3.64,0,0,0-1.08.75l-.3.36-1.31,0-2.45-.1-1.15-.06Zm5.72,4.34a10.14,10.14,0,0,0-.93,1.41l-.45.84s0-.09,0-.27,0-.52-.1-1a2.77,2.77,0,0,1,.39-1.62c.3-.56.53-.84.71-.86l.52,0C25.94,97.76,26,99,25.64,99.37Zm-6.77,4a4.65,4.65,0,0,1,.36,1c0,.17,0,.26,0,.26l-.31-.5q-.32-.49-.57-.48h0c-.17,0-.26-.17-.29-.51s0-.52,0-.52l.26,0C18.45,102.67,18.65,102.92,18.87,103.42ZM17,112.06a1.54,1.54,0,0,1,1-.36l1-.09c.17,0,.18.07,0,.26a3,3,0,0,1-1,.62,4,4,0,0,1-1,.35h0q-.23,0-.24-.24l0-.27Zm2.43,6.39-1.31.12h-.19a1,1,0,0,1-.91-.44l-.31-.5s0-.09,0-.26.15-.28.5-.31a2.5,2.5,0,0,1,1.36.4,9.47,9.47,0,0,1,1.12.69C19.86,118.32,19.78,118.42,19.43,118.45Zm0-20.89-.29-.24.53,0,1.05-.1a1.07,1.07,0,0,1,.81.2.32.32,0,0,1,0,.52,1.06,1.06,0,0,1-.76.33h-.17A.93.93,0,0,1,20,98Zm2.18,9.59-.28-.24-.29-.24.53,0s0,.09,0,.26S21.58,107.15,21.58,107.15Zm5.25,7.06h0ZM29,115.48l-.26,0-.27,0h0c-.16,0-.25-.16-.29-.5s.05-.53.22-.55l.53,0,.26,0s0,.18.05.53S29.12,115.46,29,115.48Zm1-15.43-.53,0s0-.08,0-.26,0-.26,0-.26l.26,0C29.8,99.53,30.29,100,29.94,100.05Zm-.12-4.45-.52.05c-.18,0-.26.11-.24.29a.73.73,0,0,0,.31.5.79.79,0,0,1,.31.5c0,.18-.15.28-.5.31l-1.05.1-.79.07h0c-.17,0-.35-.16-.55-.48l-.31-.5,0-.26c0-.18.23-.38.75-.6a2.92,2.92,0,0,0,1-.62,3.3,3.3,0,0,1,1.26-.64,9,9,0,0,1,2.08-.46c.7-.06,2.26,1.57,2.29,1.92l.09,1c0,.35.06.62.07.79a.73.73,0,0,1-.21.55l-.24.29-.53,0a1.51,1.51,0,0,1-1.09-.44c-.39-.31-.58-.56-.6-.74a4.81,4.81,0,0,0-.36-1c-.22-.51-.42-.76-.59-.74l-.27,0Zm2.93,6.31-.55-.22-.55-.21s0-.09,0-.27,0-.26,0-.26l.26,0a.24.24,0,0,1,.29.24C32.17,101.34,32.75,101.91,32.75,101.91Zm-2.56-1.5.18,0Zm3.87,15.86a4,4,0,0,1-1,.35l-.78.07-.79.08-.53,0h0q-.23,0-.24-.24l0-.26.53,0a11.08,11.08,0,0,0,1.81-.42,13.64,13.64,0,0,1,1.55-.41.24.24,0,0,1,.29.24C34.82,115.85,34.57,116,34.06,116.27Zm.91-9.16-.26,0,0-.26c0-.17,0-.35,0-.52s0-.26,0-.26l.26,0c.17,0,.28.15.31.5S35.15,107.1,35,107.11Zm0-11.9-.26,0h0c-.15,0-.23-.08-.25-.24s0-.26,0-.26l1.05-.1a2.08,2.08,0,0,0,1.29-.38.77.77,0,0,1,.5-.31l.26,0,.26,0c.18,0,.76.55.6.74a.75.75,0,0,1-.5.31l-1,.09-1.05.1-.53,0Zm5.77,5.3a4.17,4.17,0,0,1-1.79.69,1.57,1.57,0,0,1-1.07-.16,3.57,3.57,0,0,0-.29-.24s0-.09,0-.27l0-.26L37.3,100,37,99.79l-.5.32a2.19,2.19,0,0,1-.76.33l-.27,0,.24-.29a5.87,5.87,0,0,1,1.51-.92,6.16,6.16,0,0,0,1.5-.93L39,98l.24-.28a.75.75,0,0,1,.5-.32l.79-.07a3.3,3.3,0,0,1,1.38.67.78.78,0,0,0,.55.22l.26,0s0,.09,0,.27a2.49,2.49,0,0,1,0,.26l-.47.57A6.09,6.09,0,0,1,40.78,100.51Zm2,1.94-.74.59-.27,0h0a.23.23,0,0,1-.26-.24.73.73,0,0,1,.21-.55,3.28,3.28,0,0,1,.74-.6l1-.62c.33-.2.43-.13.28.24A3,3,0,0,1,42.81,102.45Zm1.2,2.26,0,.26c0,.17,0,.26,0,.26l-.26,0-.26,0,0-.26c0-.18,0-.35,0-.53s.07-.18.26,0Zm-.21,3.46a.78.78,0,0,1-.22.54l-.24.29a2.49,2.49,0,0,0,0-.26c0-.18,0-.35,0-.53a2.22,2.22,0,0,1,.19-.81c.15-.36.3-.55.48-.57l.26,0A9.51,9.51,0,0,0,43.8,108.17Zm.82-14.88-.78.07,0-.26c0-.18.24-.29.77-.34s.79,0,.81.19S45.15,93.24,44.62,93.29Zm1.57,17.31-.26,0,0-.26c0-.18,0-.36,0-.53a.8.8,0,0,1,.22-.55l.24-.29s0,.09,0,.27,0,.44.07.79S46.36,110.59,46.19,110.6Zm.23-5.58-.21.55-.29-.24a1.07,1.07,0,0,1-.33-.77.85.85,0,0,1,.45-.83C46.38,103.52,46.57,104.65,46.42,105Zm2.78-5a.23.23,0,0,1-.24.28l-.26,0s0-.18-.05-.53a1.07,1.07,0,0,1,.19-.81l.24-.29.27,0C49.52,98.67,49.19,99.84,49.2,100Zm-.76-11.31-1.83.16L45,89h-.26a10.07,10.07,0,0,1-1.33-.13l-1.08-.17.5-.31a7.91,7.91,0,0,1,1.79-.69A8.77,8.77,0,0,0,46.44,87l.5-.31.79-.07a4.85,4.85,0,0,1,1.6.12,2.84,2.84,0,0,1,1.09.43.75.75,0,0,1,.32.5c0,.17-.24.37-.74.59A4.87,4.87,0,0,1,48.44,88.71Zm1.83,14.38-.24.29s0-.09,0-.26a.73.73,0,0,1,.21-.55.79.79,0,0,1,.51-.31l.26,0Zm2.58-9.49.24-.28c.16-.2.15-.28,0-.27a.23.23,0,0,1-.29-.23c0-.18-.2-.25-.55-.22l-1,.09H51.1c-.3,0-.46-.16-.49-.48a.47.47,0,0,1,.48-.57,4,4,0,0,1,1.34.14,2.84,2.84,0,0,1,1.09.43,2.93,2.93,0,0,0,.84.45q.54.22.57.48c0,.18,0,.35,0,.52s-.25.21-.79.08a4,4,0,0,0-1.07-.17ZM55,97.11c.18,0-.3.56-.48.57l-.26,0,.24-.29.24-.29Zm0,11.64-.52,0-.53,0-.52,0-.26,0,.21-.55c.15-.37.3-.56.48-.57l.26,0,.26,0,.53,0a.24.24,0,0,1,.29.24c0,.18,0,.26,0,.26S55.19,108.73,55,108.75Zm1.44-7.54h0c-.16,0-.24-.09-.26-.25a.78.78,0,0,1,.22-.54l.48-.58a1.07,1.07,0,0,0-.19.82C56.7,101,56.63,101.2,56.45,101.21ZM58,92.34a3.29,3.29,0,0,1-1,.22.56.56,0,0,1-.35-.1,2.9,2.9,0,0,0-1.1-.43c-.54-.13-.82-.28-.83-.45l0-.27.79-.07a7.6,7.6,0,0,0,1.81-.42,2.41,2.41,0,0,1,1.58-.15.85.85,0,0,1,.59.74c0,.35,0,.53-.21.55A8.17,8.17,0,0,0,58,92.34Zm1.31,2.79-.52.05,0-.26c0-.18,0-.26,0-.26l.52,0,.53,0s0,.09,0,.26S59.69,95.1,59.34,95.13ZM74.62,79.94A3.7,3.7,0,0,1,72.27,81l-.43,0a20.23,20.23,0,0,1-3.48-.52C70.42,79.42,73.37,79.73,74.62,79.94ZM61.28,84.38A7.07,7.07,0,0,0,63,82.9a4.54,4.54,0,0,1,2.24-1.52L66,81.3l0,.27c0,.17,0,.26,0,.26a2.62,2.62,0,0,0-1,1.14,6.57,6.57,0,0,1-.67,1.39.71.71,0,0,1-.5.3l-.79.08-1.31.11-.3,0q-.49,0-.51-.21c0-.17,0-.26,0-.26Zm-.85,2.72c-.15,0-.23-.08-.25-.24s.24-.29.76-.34l.79-.07-.24.29a.77.77,0,0,1-.5.31l-.52,0Zm1.7,15.45a9.35,9.35,0,0,1-.69,1.13.75.75,0,0,1-.51.3l-.26,0s0-.09,0-.27a2.67,2.67,0,0,1,.43-1.09,7.34,7.34,0,0,1,.69-1.12l.48-.58.24-.28a2.49,2.49,0,0,0,0,.26c0,.18,0,.35.05.53A2.83,2.83,0,0,1,62.13,102.55Zm.31-8.23c-.38-.31-.58-.56-.59-.74l0-.26.26,0,.53,0q.27,0,.57.48a3.28,3.28,0,0,0,.6.74.79.79,0,0,1,.31.5.24.24,0,0,1-.24.29l-.26,0L63.3,95Zm2,8-.48.57-.24.29-.26,0-.26,0,0-.27a4.54,4.54,0,0,1,.17-1.07,9.8,9.8,0,0,1,.41-1.36L64,100l0,.26a.75.75,0,0,0,.31.51A2.42,2.42,0,0,1,64.49,102.34Zm1.7-10.47q-.21.55-.48.57l-.26,0-.26,0h0a5,5,0,0,1-1.33-.41l-1.65-.64c-.36-.15-.55-.3-.57-.48s.06-.27.24-.28l.78-.08.79-.07.79-.07,1.05-.09C65.61,90.33,66.33,91.5,66.19,91.87Zm.17-8c-.42,0-.63-.06-.64-.18a2,2,0,0,1,.19-.81,1.73,1.73,0,0,1,.72-.86,3.23,3.23,0,0,0,.74-.59c.16-.19.23-.29.23-.29l.82.19a14.92,14.92,0,0,1,1.9.63l1.65.64a4.48,4.48,0,0,0,1.07.17l-.24.28c-.16.19-.23.29-.23.29l-.79.07-1.32.12-1.31.12-2.1.19Zm6.56,6.32-.26,0-.31-.5-.31-.5.52,0,.79-.07C73.52,89.09,73.09,90.19,72.92,90.21Zm.32,12.4a.23.23,0,0,1-.24.28l-.52,0-.26,0,0-.27c0-.17.15-.27.5-.31l.53,0S73.23,102.43,73.24,102.61Zm-.77-14.48a4.54,4.54,0,0,1-.49,0c-.38,0-.58-.06-.59-.19a.75.75,0,0,0-.31-.5c-.19-.16,0-.44.45-.83A2.59,2.59,0,0,1,72.8,86l1-.09.53,0a2.49,2.49,0,0,0,0,.26c0,.18,0,.35,0,.53a.8.8,0,0,1-.22.55l-.48.57-.23.28ZM71.36,99.34l-.31-.5a2.4,2.4,0,0,1-.36-1c0-.35-.08-.87-.14-1.57a2.1,2.1,0,0,1,.15-1.34l.23-.28,0,.26c0,.17.1,1.14.16,1.84s.11,1.22.15,1.57,0,.61.07.79S71.36,99.34,71.36,99.34Zm-2.4-9c0,.17,0,.26,0,.26l-.28-.24c-.19-.16-.2-.25,0-.26l.53,0C69.37,90,68.94,90.12,69,90.3Zm-.43-1.82a2.06,2.06,0,0,1-.34,0,1.15,1.15,0,0,1-.73-.18l-.29-.24.24-.29a1.49,1.49,0,0,1,1-.35.9.9,0,0,1,.86.71C69.31,88.32,69.05,88.44,68.53,88.48Zm5.14,18.85a3,3,0,0,1-1.29.38l-1.31.12H71a1.59,1.59,0,0,1-1-.43c-.38-.32-.48-.48-.31-.5a2,2,0,0,1,.81.19,4.39,4.39,0,0,0,1.86.1l1.84-.17Zm1.06-14.64-.53,0A.23.23,0,0,0,74,93l0-.26.24-.29.24-.28.24-.29c.16-.19.25-.11.28.24s0,.52,0,.52Zm.55-2.7-.53.05a2.49,2.49,0,0,0,0-.26.74.74,0,0,1,.22-.55c.16-.19.23-.29.23-.29l.26,0q.27,0,.84.45c.38.32.58.57.6.74s-.16.19-.53,0A2.38,2.38,0,0,0,75.28,90Zm2,13.31a.73.73,0,0,1-.5.31h0c-.15,0-.23-.09-.25-.25a.23.23,0,0,1,.24-.28l.53,0,.26,0Zm1-21.25a3.18,3.18,0,0,0-.46.84,3,3,0,0,1-.45.83l-.24.29s0-.18-.05-.53-.4-.58-1.12-.69-1.08-.25-1.1-.43,0-.26,0-.26l-.26,0h0a.8.8,0,0,1-.5-.21l-.29-.24.27,0a4.09,4.09,0,0,0,1-.35,3.23,3.23,0,0,1,1.84-.17,9.36,9.36,0,0,0,1.33.15.23.23,0,0,1,.29.23c0,.18,0,.27,0,.27Zm14.89,18.5-.29-.24-.28-.24.24-.29.24-.28.26,0c.17,0,.18.07,0,.27a.73.73,0,0,0-.21.55C93.15,100.46,93.16,100.55,93.16,100.55Zm-.78-2.84c0-.18,0-.35,0-.53a.75.75,0,0,1,.21-.55l.24-.28,0,.26c0,.18,0,.35,0,.53s0,.79-.19.81h0Q92.4,98,92.38,97.71Zm1-11.6a.44.44,0,0,1-.2-.11,3.27,3.27,0,0,0-.83-.46,1.66,1.66,0,0,1-.88-1,11.07,11.07,0,0,0-.65-1.26l-.31-.5.55.21a5.93,5.93,0,0,1,1.41.94,2.12,2.12,0,0,1,.9,1.24c0,.35.06.61.07.78S93.42,86.11,93.37,86.11ZM91,90.66l-.28-.24h0l.27,0c.07,0,.12.07.14.15S91.08,90.75,91,90.66ZM79.13,79.86h0a.23.23,0,0,1-.24-.24.24.24,0,0,1,.24-.29.25.25,0,0,1,.29.24c0,.18,0,.27,0,.27Zm3.16,14.53a4.3,4.3,0,0,0-.15,1.33c0,.35,0,.53,0,.53l-.26,0-.26,0,0-.26c0-.17,0-.44-.07-.79l-.09-1a1.09,1.09,0,0,1,.19-.82l.24-.28.26,0,.26,0A7.51,7.51,0,0,1,82.29,94.39Zm-.69-7.61a2.3,2.3,0,0,1-.35-1,2.23,2.23,0,0,0-.91-1.24c-.57-.48-.87-.8-.88-1l0-.26.51-.31a2,2,0,0,1,.76-.34c.17,0,.46.23.86.72s.89,1.16,1.5,2,1,1.41,1.21,1.74a2.1,2.1,0,0,1,.34.77c0,.17-.15.28-.51.31H84a2.69,2.69,0,0,1-1.25-.41A3,3,0,0,1,81.6,86.78Zm1.64,9.37-.09-1.05a1,1,0,0,1,.19-.81l.24-.28.28.24a.83.83,0,0,0,.55.21c.18,0,.28,1.21.14,1.57a2.93,2.93,0,0,1-.45.84l-.24.29-.29-.24A1.09,1.09,0,0,1,83.24,96.15Zm1.84,5.66-.27,0-.57-.48c-.38-.31-.57-.48-.57-.48l0-.26c0-.17,0-.26,0-.26l.26,0a.73.73,0,0,1,.55.21,3.28,3.28,0,0,1,.6.74C85.23,101.62,85.25,101.79,85.08,101.81Zm.16-4a3.73,3.73,0,0,1-.38,1.62.14.14,0,0,1-.12.08c-.09,0-.15-.19-.19-.58a2.92,2.92,0,0,1,.14-1.33,3.36,3.36,0,0,1,.46-.84l.24-.28Zm4-8h0c-.15,0-.23-.08-.25-.24s0-.26,0-.26l.26,0c.18,0,.31.5.31.5Zm.1-10.59a.77.77,0,0,1-.5.31,4.54,4.54,0,0,1-1.07-.17L87,79.15l-.53,0-1.31.11a5.09,5.09,0,0,1-.58,0,13.27,13.27,0,0,1-1.54-.1,18.81,18.81,0,0,1-2.15-.33l-.81-.2.48-.57a2.58,2.58,0,0,1,1.79-.69l1.84-.16a1.09,1.09,0,0,1,.81.19,7,7,0,0,0,2.17.59,11.51,11.51,0,0,1,2.45.84Zm.39-1.62h-.1a.85.85,0,0,1-.74-.46l-.31-.5.26,0,.79-.07c.35,0,.58.56.6.74S90.12,77.55,89.77,77.58Zm1.46,22.08h0a.82.82,0,0,1-.5-.22l-.28-.24,0-.26c0-.18,0-.26,0-.26l.24-.29.24-.29.26,0c.17,0,.28.15.31.5S91.4,99.65,91.23,99.66Zm2.67,5.76h0a2.68,2.68,0,0,1-1.11-.7l-1.14-1-.28-.24.26,0a2.74,2.74,0,0,1,1.1.43,7.91,7.91,0,0,1,1.12.69.79.79,0,0,1,.31.5A.24.24,0,0,1,93.9,105.42ZM95.53,88.7h0a2.3,2.3,0,0,1-.76-.2.85.85,0,0,1-.6-.74.47.47,0,0,1,.48-.57.85.85,0,0,1,.84.46C95.64,88,95.71,88.68,95.53,88.7Zm-.22-6.51a1.41,1.41,0,0,1-.37-.06c-.54-.12-.83-.36-.86-.71s0-.53,0-.53l.81.19c.54.13.83.37.86.72S95.59,82.19,95.31,82.19Zm.58-1.2h-.1a2.89,2.89,0,0,1-1.26-.41,9.18,9.18,0,0,1-1.4-.94,9.57,9.57,0,0,0-1.41-.93c-.56-.3-.84-.54-.86-.71s0-.27,0-.27l.24-.28a1.54,1.54,0,0,1,1-.36,4.83,4.83,0,0,1,1.6.12,2.59,2.59,0,0,1,1.41.93A7,7,0,0,1,96,79.66a4.81,4.81,0,0,1,.36,1C96.41,80.86,96.24,81,95.89,81Zm9.47,2.32a5.37,5.37,0,0,1,1.41.93,6,6,0,0,1,1.17,1.22l.31.5-.51.31a2.24,2.24,0,0,1-1,.36h-.09a.85.85,0,0,1-.75-.46,10.38,10.38,0,0,1-.64-1.26,4,4,0,0,1-.35-1l-.06-.52c0-.18,0-.27,0-.27Zm-.74,6.42.24-.29s0,.09,0,.26a2.22,2.22,0,0,0,.33.77c.21.33.23.59.07.78s-.23.29-.23.29l-.27,0h0c-.16,0-.26-.16-.29-.5s0-.61-.07-.78l0-.27Zm-2.48-4a2.82,2.82,0,0,1,.62,1,2.82,2.82,0,0,0,.62,1l-.86-.71a1.54,1.54,0,0,1-.62-1c0-.35-.05-.52-.05-.52Zm-1.62-3.3.29.24a.74.74,0,0,0-.55-.21Zm-3.89.88.27,0a2.49,2.49,0,0,0,0,.26q0,.27.57.48c.36.14.56.3.57.48l0,.26-.27,0h0c-.18,0-.36-.16-.56-.47a2.85,2.85,0,0,0-.6-.74C96.46,83.41,96.46,83.32,96.63,83.3Zm.69,10.53-.53,0s0-.08,0-.26.06-.27.24-.29a.81.81,0,0,1,.55.22l.28.24Zm0-2.65-.26,0s0-.09,0-.26l0-.26.5-.31c.34-.21.51-.23.53-.05s0,.79-.19.81Zm3.4,17.15h-.06a2.3,2.3,0,0,1-1.32-.67l-1.15-1-.28-.24,0-.27c0-.17,0-.26,0-.26l.55.22a9.51,9.51,0,0,0,1.36.4,2.84,2.84,0,0,1,1.09.43.76.76,0,0,1,.32.51c0,.17,0,.34,0,.52l0,.26Zm.63-16.46c0-.35-.05-.52-.05-.52l.27,0a.81.81,0,0,1,.55.22c.19.16.86.8.88,1a.78.78,0,0,1-.22.54.73.73,0,0,1-.5.31h0c-.17,0-.35-.16-.55-.48A2.32,2.32,0,0,1,101.37,91.87Zm2.88,11.38a2.85,2.85,0,0,1-.45.83l-.24.29-.84-.45-.83-.46.43-1.09c.29-.73.61-1.12,1-1.15a1.16,1.16,0,0,1,.82.19,1.09,1.09,0,0,1,.33.77A2.25,2.25,0,0,1,104.25,103.25Zm1.2-7.25a1.69,1.69,0,0,1-.86-.72,1.8,1.8,0,0,1-.33-.76c0-.17.14-.37.47-.57a2.32,2.32,0,0,1,1-.36c.35,0,.63.21.86.72a2.82,2.82,0,0,0,.62,1,.33.33,0,0,1,.05.52,1.05,1.05,0,0,1-.77.34h-.19A2.35,2.35,0,0,1,105.45,96Zm1.21,7.56h-.08c-.29,0-.36-.17-.23-.51s.22-.55.22-.55l.71-.86c.48-.57.81-.86,1-.88a.25.25,0,0,1,.29.24c0,.18,0,.26,0,.26s0,.27.07.79-.14,1.34-.67,1.39Zm1.65-5.17c0-.18.15-.28.5-.31l.52,0s0,.17,0,.53.05.52.05.52l-.26,0h0a.82.82,0,0,1-.5-.22A.79.79,0,0,1,108.31,98.39Zm.23,11.35a.52.52,0,0,1-.48.4.74.74,0,0,1-.28-.06l-.55-.22.24-.29a1.06,1.06,0,0,1,.76-.33l.52,0Zm1.36-2.5-.76.33,0-.26a.78.78,0,0,1,.22-.55,1.06,1.06,0,0,1,.76-.33l.53-.05s0,.09,0,.26S110.41,107,109.9,107.24Zm2-13.14a1.66,1.66,0,0,1-.72.85,2,2,0,0,1-.76.34l-.26,0-.53,0h-.09a1.56,1.56,0,0,1-1-.43,4.18,4.18,0,0,1-.89-1l-.3-.5s.06-.19.21-.55a4.41,4.41,0,0,0,.09-1.86,4.33,4.33,0,0,0-.42-1.81,1.12,1.12,0,0,1-.1-1,.86.86,0,0,1,.74-.6l.53,0,.52,0c.35,0,.74.37,1.17,1.22s1.47,3.57,1.69,4.07A1.7,1.7,0,0,1,111.89,94.1Zm1.09,9.16a.23.23,0,0,1-.24.28h0c-.17,0-.27-.16-.3-.5s0-.53.22-.55l.52,0,.27,0A3.18,3.18,0,0,0,113,103.26Zm1.77-1-.53,0-.26,0s0-.17,0-.52a1.07,1.07,0,0,1,.19-.81l.24-.29.27,0C114.78,100.71,114.92,102.29,114.75,102.3Zm.19-3.72-.52,0-.79.07h-.15c-.25,0-.39-.07-.4-.22s0-.35,0-.53l0-.26.79-.07a1.57,1.57,0,0,1,1.07.16.81.81,0,0,1,.31.51A.23.23,0,0,1,114.94,98.58Z"></path> <path class="cls-2" d="M29.27.86s-2.12.56-3,.67S23.58,2,21.8,4.77s-2.9,2.68-3.57,3.79-3.57,6-3.8,6.81-1.22,2.12-1.33,2.79a16.22,16.22,0,0,1-1,3.68c-.33.34-.45,4.35.56,7.14s2.12,4.8,2.23,5.36,2.68,5,6.7,5.24,6.69-.56,9.26-.11a14.5,14.5,0,0,0,6.47-.89c.44-.23,9-1.45,10.93-2.9a39.75,39.75,0,0,0,4.58-4.91c.44-.45,2.34-3.13,1-8a32.12,32.12,0,0,1-1.23-7c-.22-1.11-2-4.91-3.79-6.36a19.61,19.61,0,0,0-2.68-2.67c-.67-.34-2.57-.9-3-1.57a10.64,10.64,0,0,0-8-4.24,10,10,0,0,0-5.81,0"></path> <path class="cls-3" d="M28.27,11.46a2.6,2.6,0,0,0-2.34.9c-.79,1.11-1.79,3.12-2,3.45a7.55,7.55,0,0,0-1.56,3.57c-.34,2.12-.67,5,.55,6.92s2.46,2.9,2.46,3.24,3.46,2.34,3.46,2.34a5.2,5.2,0,0,0,3.12.67c1.34-.33,2.46-1.34,3.68-1.34s3.46,0,4.8-1.23,3.68-5.35,4.13-6,1.45-3.35.89-4.58a13.84,13.84,0,0,0-4.35-4.12,9.89,9.89,0,0,1-1.9-1c-.55-.33-1.67-1-5.24-1.78s-5-.9-5.69-1"></path> <path class="cls-4" d="M119.65,89.05a3.15,3.15,0,1,1-3.21,3.14,3.14,3.14,0,0,1,3.21-3.14m0,.51a2.64,2.64,0,1,0,2.57,2.63,2.56,2.56,0,0,0-2.57-2.63M119,94h-.57V90.38h1.4c.87,0,1.29.33,1.29,1a.94.94,0,0,1-.95,1l1,1.6h-.61l-1-1.58H119Zm0-2h.66c.68,0,.9-.19.9-.59s-.17-.55-.81-.55H119Z"></path> <path class="cls-5" d="M144.87,32.64a10.36,10.36,0,0,1-5.71-9.48,10.36,10.36,0,0,1,5.71-9.48,13,13,0,0,1,6.06-1.39,11.72,11.72,0,0,1,5.83,1.39,8.3,8.3,0,0,1,3.63,4l-4.75,2.56a5.19,5.19,0,0,0-4.75-2.91,5.41,5.41,0,0,0-4,1.57,5.77,5.77,0,0,0-1.57,4.28,5.79,5.79,0,0,0,1.57,4.28,5.41,5.41,0,0,0,4,1.57,5.13,5.13,0,0,0,4.75-2.91l4.75,2.59a8.47,8.47,0,0,1-3.63,3.93A11.62,11.62,0,0,1,150.93,34,13.07,13.07,0,0,1,144.87,32.64Z"></path> <path class="cls-5" d="M182.93,14.64q2.41,2.36,2.42,7V33.71h-6.12V22.57a5.54,5.54,0,0,0-1.1-3.75A4.06,4.06,0,0,0,175,17.59,4.85,4.85,0,0,0,171.26,19a5.9,5.9,0,0,0-1.37,4.26V33.71h-6.13V0h6.13V14.8a8.11,8.11,0,0,1,2.94-1.86,10.48,10.48,0,0,1,3.77-.65A8.68,8.68,0,0,1,182.93,14.64Z"></path> <path class="cls-5" d="M191.19,8.68a3.2,3.2,0,0,1-1.06-2.43,3.23,3.23,0,0,1,1.06-2.44,3.92,3.92,0,0,1,2.75-1,4,4,0,0,1,2.75.94,3.06,3.06,0,0,1,1.06,2.36,3.36,3.36,0,0,1-1.06,2.53,3.83,3.83,0,0,1-2.75,1A3.92,3.92,0,0,1,191.19,8.68Zm-.31,3.92H197V33.71h-6.12Z"></path> <path class="cls-5" d="M204.69,32.13a7.12,7.12,0,0,1-2-5.4V0h6.12V26.38a2.88,2.88,0,0,0,.69,2.06,2.55,2.55,0,0,0,1.94.72,4.49,4.49,0,0,0,1-.11,2.79,2.79,0,0,0,.77-.28l.27,4.75a10,10,0,0,1-3.18.51A7.8,7.8,0,0,1,204.69,32.13Z"></path> <path class="cls-5" d="M238.58,0V33.71h-5.85V31.28A8.09,8.09,0,0,1,226.14,34a11,11,0,0,1-5.4-1.34,9.41,9.41,0,0,1-3.78-3.8,11.57,11.57,0,0,1-1.38-5.73A11.57,11.57,0,0,1,217,17.43a9.5,9.5,0,0,1,3.78-3.81,11,11,0,0,1,5.4-1.33,8,8,0,0,1,6.32,2.55V0ZM231,27.42a5.89,5.89,0,0,0,1.53-4.26A5.89,5.89,0,0,0,231,18.9a5.11,5.11,0,0,0-3.84-1.59,5.17,5.17,0,0,0-3.89,1.59,5.89,5.89,0,0,0-1.53,4.26,5.89,5.89,0,0,0,1.53,4.26A5.17,5.17,0,0,0,227.2,29,5.11,5.11,0,0,0,231,27.42Z"></path> <path class="cls-5" d="M253,13.07a11,11,0,0,1,4.29-.78v5.65c-.68-.05-1.13-.08-1.37-.08a5.61,5.61,0,0,0-4.12,1.47,6,6,0,0,0-1.49,4.42v10h-6.12V12.6h5.84v2.79A6.89,6.89,0,0,1,253,13.07Z"></path> <path class="cls-5" d="M275.35,28.63a6.89,6.89,0,0,0,2.37-1.55L281,30.61Q278,34,272.26,34A13.86,13.86,0,0,1,266,32.64a10.21,10.21,0,0,1-4.24-3.87,10.6,10.6,0,0,1-1.49-5.61,10.78,10.78,0,0,1,1.47-5.59,10.35,10.35,0,0,1,4-3.89A12.63,12.63,0,0,1,277,13.56,9.81,9.81,0,0,1,281,17.25,10.76,10.76,0,0,1,282.43,23l-15.62,3a4.67,4.67,0,0,0,2.1,2.36,7.26,7.26,0,0,0,3.51.78A8.11,8.11,0,0,0,275.35,28.63Zm-7.6-10.22a5.9,5.9,0,0,0-1.53,4.12l10.28-2a4.55,4.55,0,0,0-1.76-2.63,5.31,5.31,0,0,0-3.22-1A5.05,5.05,0,0,0,267.75,18.41Z"></path> <path class="cls-5" d="M305.72,14.64q2.41,2.36,2.41,7V33.71H302V22.57a5.54,5.54,0,0,0-1.1-3.75,4,4,0,0,0-3.18-1.23A4.87,4.87,0,0,0,294,19a5.94,5.94,0,0,0-1.37,4.26V33.71h-6.12V12.6h5.85v2.48a8.14,8.14,0,0,1,3-2.07,10.57,10.57,0,0,1,4-.72A8.69,8.69,0,0,1,305.72,14.64Z"></path> <path class="cls-5" d="M319.33,1.18a4.11,4.11,0,0,1,1.2,3.08A7.18,7.18,0,0,1,320.3,6a24.63,24.63,0,0,1-.93,2.67l-2.58,6.39H312.4l1.91-7a3.84,3.84,0,0,1-1.74-1.46A4.34,4.34,0,0,1,312,4.26a4.09,4.09,0,0,1,1.22-3.08A4.27,4.27,0,0,1,316.26,0,4.19,4.19,0,0,1,319.33,1.18Z"></path> <path class="cls-5" d="M325,33.38a13.32,13.32,0,0,1-4-1.63l2-4.39a12.86,12.86,0,0,0,3.42,1.47,14.24,14.24,0,0,0,3.92.57c2.59,0,3.88-.64,3.88-1.92a1.35,1.35,0,0,0-1.06-1.3,16.13,16.13,0,0,0-3.25-.67,31,31,0,0,1-4.28-.9,6.65,6.65,0,0,1-2.92-1.8,5.13,5.13,0,0,1-1.24-3.69,5.77,5.77,0,0,1,1.16-3.55,7.41,7.41,0,0,1,3.37-2.42,14.57,14.57,0,0,1,5.24-.86,20.45,20.45,0,0,1,4.46.49,12.63,12.63,0,0,1,3.66,1.35l-2,4.36a12.11,12.11,0,0,0-6.08-1.57,6.11,6.11,0,0,0-2.94.55,1.61,1.61,0,0,0-1,1.41,1.39,1.39,0,0,0,1.06,1.37,18.22,18.22,0,0,0,3.37.75,38.12,38.12,0,0,1,4.24.92,6.4,6.4,0,0,1,2.86,1.79,5,5,0,0,1,1.22,3.61A5.54,5.54,0,0,1,339,30.81a7.48,7.48,0,0,1-3.43,2.37,15.11,15.11,0,0,1-5.36.85A20.63,20.63,0,0,1,325,33.38Z"></path> <path class="cls-5" d="M162.23,40v33.4h-5.84V71a8.06,8.06,0,0,1-6.6,2.75,11,11,0,0,1-5.39-1.33,9.58,9.58,0,0,1-3.79-3.81,12.67,12.67,0,0,1,0-11.46,9.49,9.49,0,0,1,3.79-3.8A11,11,0,0,1,149.79,52a8,8,0,0,1,6.32,2.55V40Zm-7.53,27.1a6.7,6.7,0,0,0,0-8.52,5.49,5.49,0,0,0-7.73,0,6.7,6.7,0,0,0,0,8.52,5.49,5.49,0,0,0,7.73,0Z"></path> <path class="cls-5" d="M181.44,68.31a7.33,7.33,0,0,0,2.38-1.55l3.25,3.53q-3,3.4-8.71,3.41A13.77,13.77,0,0,1,172,72.31a10.18,10.18,0,0,1-4.23-3.87,11.27,11.27,0,0,1,0-11.2,10.28,10.28,0,0,1,4-3.89A12,12,0,0,1,177.61,52a11.82,11.82,0,0,1,5.5,1.28,9.82,9.82,0,0,1,3.94,3.68,10.78,10.78,0,0,1,1.47,5.71l-15.61,3A4.65,4.65,0,0,0,175,68a7.23,7.23,0,0,0,3.51.79A8.23,8.23,0,0,0,181.44,68.31Zm-7.59-10.23a5.92,5.92,0,0,0-1.53,4.12l10.28-2a4.65,4.65,0,0,0-1.77-2.63,5.31,5.31,0,0,0-3.22-1A5,5,0,0,0,173.85,58.08Z"></path> <path class="cls-5" d="M198.61,52.75H204v4.71h-5.25V73.39h-6.13V47.83a7.71,7.71,0,0,1,2.14-5.72,8.18,8.18,0,0,1,6-2.12,11.11,11.11,0,0,1,2.61.29,6.62,6.62,0,0,1,2.06.84l-1.61,4.44a4.18,4.18,0,0,0-2.48-.75c-1.85,0-2.78,1-2.78,3.06Z"></path> <path class="cls-5" d="M221.37,68.31a7.19,7.19,0,0,0,2.37-1.55L227,70.29q-3,3.4-8.71,3.41A13.77,13.77,0,0,1,212,72.31a10.27,10.27,0,0,1-4.24-3.87,11.33,11.33,0,0,1,0-11.2,10.35,10.35,0,0,1,4-3.89A12.09,12.09,0,0,1,217.54,52a11.82,11.82,0,0,1,5.5,1.28A9.89,9.89,0,0,1,227,56.92a10.78,10.78,0,0,1,1.47,5.71l-15.62,3a4.74,4.74,0,0,0,2.1,2.35,7.28,7.28,0,0,0,3.51.79A8.29,8.29,0,0,0,221.37,68.31Zm-7.59-10.23a6,6,0,0,0-1.54,4.12l10.28-2a4.58,4.58,0,0,0-1.76-2.63,5.31,5.31,0,0,0-3.22-1A5,5,0,0,0,213.78,58.08Z"></path> <path class="cls-5" d="M250.74,54.32c1.61,1.57,2.41,3.89,2.41,7V73.39H247V62.24a5.5,5.5,0,0,0-1.1-3.74,4,4,0,0,0-3.18-1.24,4.87,4.87,0,0,0-3.68,1.43A5.93,5.93,0,0,0,237.69,63V73.39h-6.12V52.27h5.85v2.48a8.08,8.08,0,0,1,3-2.06,10.38,10.38,0,0,1,4-.73A8.69,8.69,0,0,1,250.74,54.32Z"></path> <path class="cls-5" d="M261.65,73.05a13.11,13.11,0,0,1-4-1.63l2-4.39a12.92,12.92,0,0,0,3.41,1.47,14.24,14.24,0,0,0,3.92.57c2.59,0,3.89-.64,3.89-1.92a1.36,1.36,0,0,0-1.06-1.3,15.7,15.7,0,0,0-3.26-.66,33.11,33.11,0,0,1-4.28-.91,6.71,6.71,0,0,1-2.92-1.8,5.16,5.16,0,0,1-1.23-3.69,5.78,5.78,0,0,1,1.15-3.55,7.5,7.5,0,0,1,3.38-2.42,14.53,14.53,0,0,1,5.24-.86,20.36,20.36,0,0,1,4.45.49,12.41,12.41,0,0,1,3.67,1.36l-2,4.35a12.27,12.27,0,0,0-6.08-1.57,6.31,6.31,0,0,0-2.95.55,1.63,1.63,0,0,0-1,1.41,1.41,1.41,0,0,0,1.06,1.38,18.55,18.55,0,0,0,3.38.74,36.18,36.18,0,0,1,4.24.93,6.35,6.35,0,0,1,2.86,1.78A5.07,5.07,0,0,1,276.76,67a5.59,5.59,0,0,1-1.18,3.49,7.62,7.62,0,0,1-3.43,2.38,15.39,15.39,0,0,1-5.36.84A20.57,20.57,0,0,1,261.65,73.05Z"></path> <path class="cls-5" d="M295.08,68.31a7.33,7.33,0,0,0,2.38-1.55l3.25,3.53q-3,3.4-8.71,3.41a13.77,13.77,0,0,1-6.32-1.39,10.27,10.27,0,0,1-4.24-3.87,11.33,11.33,0,0,1,0-11.2,10.38,10.38,0,0,1,4.05-3.89A12,12,0,0,1,291.25,52a11.82,11.82,0,0,1,5.5,1.28,9.82,9.82,0,0,1,3.94,3.68,10.78,10.78,0,0,1,1.47,5.71l-15.61,3a4.65,4.65,0,0,0,2.1,2.35,7.23,7.23,0,0,0,3.51.79A8.23,8.23,0,0,0,295.08,68.31Zm-7.59-10.23A5.92,5.92,0,0,0,286,62.2l10.28-2a4.65,4.65,0,0,0-1.77-2.63,5.31,5.31,0,0,0-3.22-1A5,5,0,0,0,287.49,58.08Z"></path> <path class="cls-5" d="M322.35,52.75h5.42v4.71h-5.26V73.39h-6.12V47.83a7.67,7.67,0,0,1,2.14-5.72,8.14,8.14,0,0,1,6-2.12,11,11,0,0,1,2.61.29,6.62,6.62,0,0,1,2.06.84l-1.61,4.44a4.17,4.17,0,0,0-2.47-.75q-2.79,0-2.79,3.06Z"></path> <path class="cls-5" d="M353.1,52.27V73.39h-5.81V70.88a8.13,8.13,0,0,1-2.9,2.09,10,10,0,0,1-10.25-1.66q-2.43-2.4-2.43-7.11V52.27h6.12v11q0,5.1,4.28,5.1A4.58,4.58,0,0,0,345.64,67,6,6,0,0,0,347,62.71V52.27Z"></path> <path class="cls-5" d="M377,54.32c1.61,1.57,2.41,3.89,2.41,7V73.39h-6.12V62.24a5.5,5.5,0,0,0-1.1-3.74A4,4,0,0,0,369,57.26a4.9,4.9,0,0,0-3.69,1.43A6,6,0,0,0,363.91,63V73.39h-6.12V52.27h5.85v2.48a8,8,0,0,1,3-2.06,10.38,10.38,0,0,1,4-.73A8.69,8.69,0,0,1,377,54.32Z"></path> <path class="cls-5" d="M405.64,40v33.4H399.8V71a8.06,8.06,0,0,1-6.6,2.75,11,11,0,0,1-5.39-1.33A9.58,9.58,0,0,1,384,68.56a12.67,12.67,0,0,1,0-11.46,9.49,9.49,0,0,1,3.79-3.8A11,11,0,0,1,393.2,52a8,8,0,0,1,6.32,2.55V40Zm-7.53,27.1a6.7,6.7,0,0,0,0-8.52,5.49,5.49,0,0,0-7.73,0,6.7,6.7,0,0,0,0,8.52,5.49,5.49,0,0,0,7.73,0Z"></path> <path class="cls-6" d="M410.17,84.8a2.64,2.64,0,1,1-2.67,2.63,2.62,2.62,0,0,1,2.67-2.63m0,.43a2.21,2.21,0,1,0,2.15,2.2,2.14,2.14,0,0,0-2.15-2.2M409.61,89h-.47v-3h1.17c.72,0,1.08.27,1.08.87a.8.8,0,0,1-.8.84l.87,1.33H411l-.81-1.32h-.53Zm0-1.7h.55c.57,0,.76-.16.76-.5s-.15-.45-.68-.45h-.63Z"></path> <path class="cls-6" d="M140.05,109.46a1.13,1.13,0,0,1-.79-.27,1.24,1.24,0,0,1-.38-.61,1.3,1.3,0,0,1,0-.73,1.15,1.15,0,0,1,.42-.62,6.05,6.05,0,0,0,.12-2.12l-.24-2.13a14.59,14.59,0,0,1-.1-2.55c0-.84.13-1.69.25-2.56s.26-1.73.4-2.58.27-1.72.38-2.59.19-1.85.26-2.76.13-1.82.17-2.75a1.07,1.07,0,0,1,.4-.9,1.38,1.38,0,0,1,.87-.31,1.22,1.22,0,0,1,.83.31,1,1,0,0,1,.35.9c-.05,1-.1,1.93-.17,2.88s-.16,1.92-.27,2.91-.23,1.8-.38,2.66-.3,1.76-.42,2.67a17.13,17.13,0,0,0-.19,2.55,20.34,20.34,0,0,0,.16,2.56c.06.6.11,1.2.17,1.79a8.34,8.34,0,0,1-.05,1.8c1.55,0,3.1.12,4.65.23s3.09.2,4.64.27a1.08,1.08,0,0,1,.88.43,1.43,1.43,0,0,1,.3.87,1.27,1.27,0,0,1-.3.83,1,1,0,0,1-.88.34c-1.88-.08-3.73-.19-5.56-.32S141.91,109.46,140.05,109.46Z"></path> <path class="cls-6" d="M154.37,98.19a6.77,6.77,0,0,1,1.41-1.42,7,7,0,0,1,1.75-1,5.5,5.5,0,0,1,1.92-.37,5,5,0,0,1,2,.39,6.26,6.26,0,0,1,1.74,1,4.44,4.44,0,0,1,1.21,1.63,4.76,4.76,0,0,1,.4,1.61,2.3,2.3,0,0,1-.46,1.58,3.17,3.17,0,0,1-1.14,1,5.56,5.56,0,0,1-1.42.5,8,8,0,0,1-1.55.15q-.79,0-1.5,0c-.54,0-1.07-.06-1.6-.12l-1.59-.19a6.11,6.11,0,0,0,1,2.48,4.7,4.7,0,0,0,2,1.64l.53.19.17,0,.17,0,.42,0a1.13,1.13,0,0,0,.32,0l.3,0,.17,0a4.52,4.52,0,0,0,.6-.22,3.94,3.94,0,0,0,.64-.4c.12-.11.29-.26.49-.47s.38-.39.53-.56a1.58,1.58,0,0,1,.76-.58,1,1,0,0,1,.91.12,1.41,1.41,0,0,1,.58.76,1,1,0,0,1-.14.94,8.86,8.86,0,0,1-2.13,2.06,5.11,5.11,0,0,1-2.8.92,5.45,5.45,0,0,1-2.45-.45,6.94,6.94,0,0,1-2.07-1.38,8.22,8.22,0,0,1-1.77-2.51,7.77,7.77,0,0,1-.71-2.91,1.39,1.39,0,0,1-.42-.54,1.29,1.29,0,0,1-.09-.67,1.54,1.54,0,0,1,.23-.63.88.88,0,0,1,.56-.39A7.35,7.35,0,0,1,154.37,98.19Zm7.44.75a3,3,0,0,0-1.06-.78,3.62,3.62,0,0,0-1.38-.25,3,3,0,0,0-1.34.28,4,4,0,0,0-1.27,1,5.25,5.25,0,0,0-.9,1.34l1.49.19c.49.06,1,.1,1.48.12h.81c.27,0,.53,0,.8,0h.24l.23,0,.42-.08a1.11,1.11,0,0,0,.29-.07,2.15,2.15,0,0,0,.31-.1l.19-.09.09-.06.09-.37a.91.91,0,0,1-.08-.23.52.52,0,0,0-.07-.21,2.34,2.34,0,0,0-.14-.28C161.93,99.12,161.87,99,161.81,98.94Z"></path> <path class="cls-6" d="M169.58,109.37a4.05,4.05,0,0,1-1.66-1.28,4.89,4.89,0,0,1-.83-1.81,6.42,6.42,0,0,1-.14-2.06,8.29,8.29,0,0,1,.43-2.06c.19-.52.4-1.06.64-1.61a8,8,0,0,1,.85-1.55,5.11,5.11,0,0,1,1.18-1.23,3.57,3.57,0,0,1,1.61-.66,8.9,8.9,0,0,1,1.93-.11,18,18,0,0,1,1.94.2,4.38,4.38,0,0,1,.83.2q.4.13.81.3a1.06,1.06,0,0,1,.42-.78,1.33,1.33,0,0,1,.82-.31,1.1,1.1,0,0,1,.85.36,1.49,1.49,0,0,1,.39.85,24.72,24.72,0,0,1,.14,2.85c0,1,0,1.9-.1,2.85s-.09,1.9-.12,2.85,0,1.9,0,2.85a1,1,0,0,1-.36.88,1.36,1.36,0,0,1-.85.3,1.34,1.34,0,0,1-.85-.3,1.1,1.1,0,0,1-.42-.88,11.27,11.27,0,0,1-3.75.85A8,8,0,0,1,169.58,109.37Zm.22-6.72a10.49,10.49,0,0,0-.34,1.27,4.31,4.31,0,0,0-.1,1.37,2.77,2.77,0,0,0,.41,1.19,1.85,1.85,0,0,0,1.11.76,7.21,7.21,0,0,0,6.17-.84c.08-1,.15-2,.2-2.94s.06-1.91,0-2.88a9.49,9.49,0,0,0-1.07-.61,4,4,0,0,0-1.19-.35c-.43-.07-.89-.11-1.38-.14a9.32,9.32,0,0,0-1.4,0,1.94,1.94,0,0,0-.33.08,1.27,1.27,0,0,0-.3.11,1.57,1.57,0,0,0-.55.49,7.58,7.58,0,0,0-.71,1.2A13.07,13.07,0,0,0,169.8,102.65Z"></path> <path class="cls-6" d="M184.79,105.72c-.17-.54-.32-1.09-.45-1.64s-.28-1.11-.45-1.64a13.28,13.28,0,0,0-1-2.67c-.23-.45-.46-.91-.68-1.38a5.72,5.72,0,0,1-.5-1.44,1.11,1.11,0,0,1,.2-1,1.52,1.52,0,0,1,.76-.51,1.2,1.2,0,0,1,.87.06,1,1,0,0,1,.56.77,4.89,4.89,0,0,0,.51,1.4c.24.43.47.87.69,1.33a11.3,11.3,0,0,1,.59,1.45c.17.5.32,1,.47,1.49s.31,1.09.45,1.66a15.1,15.1,0,0,0,.48,1.66c.06.2.13.4.2.6s.15.4.23.6c.21-.6.37-1.12.5-1.56a10.84,10.84,0,0,1,.43-1.29c.23-.62.44-1.23.65-1.84s.39-1.23.56-1.87a14.32,14.32,0,0,0,.37-1.82,14.53,14.53,0,0,1,.37-1.81,1,1,0,0,1,.62-.74,1.34,1.34,0,0,1,.9-.06,1.36,1.36,0,0,1,.73.51A1,1,0,0,1,193,97a11.47,11.47,0,0,0-.44,2.06,10.78,10.78,0,0,1-.43,2c-.19.66-.4,1.32-.64,2s-.47,1.3-.69,2c-.15.45-.29.92-.44,1.4a10.71,10.71,0,0,1-.51,1.41,5.91,5.91,0,0,1-.73,1.27,3.65,3.65,0,0,1-1.08,1,1,1,0,0,1-1.08.07,1.84,1.84,0,0,1-.75-.81c-.25-.6-.49-1.2-.73-1.79S185,106.32,184.79,105.72Z"></path> <path class="cls-6" d="M196,98.19a6.77,6.77,0,0,1,1.41-1.42,7,7,0,0,1,1.75-1,5.5,5.5,0,0,1,1.92-.37,5,5,0,0,1,2,.39,6.26,6.26,0,0,1,1.74,1A4.44,4.44,0,0,1,206,98.44a4.76,4.76,0,0,1,.4,1.61,2.31,2.31,0,0,1-.47,1.58,3.14,3.14,0,0,1-1.13,1,5.7,5.7,0,0,1-1.42.5,8.06,8.06,0,0,1-1.55.15q-.8,0-1.5,0c-.54,0-1.07-.06-1.6-.12l-1.59-.19a6.11,6.11,0,0,0,1,2.48,4.59,4.59,0,0,0,2,1.64l.53.19.17,0,.17,0,.42,0a1.13,1.13,0,0,0,.32,0l.3,0,.17,0a5.87,5.87,0,0,0,.6-.22,3.92,3.92,0,0,0,.63-.4c.13-.11.29-.26.5-.47s.38-.39.53-.56a1.53,1.53,0,0,1,.76-.58,1,1,0,0,1,.91.12,1.35,1.35,0,0,1,.57.76,1,1,0,0,1-.14.94,8.82,8.82,0,0,1-2.12,2.06,5.11,5.11,0,0,1-2.8.92,5.45,5.45,0,0,1-2.45-.45,6.82,6.82,0,0,1-2.07-1.38,8.05,8.05,0,0,1-1.77-2.51,7.77,7.77,0,0,1-.71-2.91,1.3,1.3,0,0,1-.42-.54,1.29,1.29,0,0,1-.09-.67,1.54,1.54,0,0,1,.23-.63.86.86,0,0,1,.56-.39A6.88,6.88,0,0,1,196,98.19Zm7.43.75a2.82,2.82,0,0,0-1.05-.78,3.62,3.62,0,0,0-1.38-.25,3,3,0,0,0-1.34.28,4,4,0,0,0-1.27,1,4.78,4.78,0,0,0-.9,1.34l1.48.19c.5.06,1,.1,1.49.12h.81l.8,0h.23l.24,0,.41-.08a1.18,1.18,0,0,0,.3-.07l.31-.1.18-.09a.29.29,0,0,1,.1-.06l.09-.37a.91.91,0,0,1-.08-.23.42.42,0,0,0-.08-.21,1.92,1.92,0,0,0-.13-.28A3,3,0,0,0,203.4,98.94Z"></path> <path class="cls-6" d="M218.74,92.06a.45.45,0,0,1-.11-.13l-.11-.12a1.05,1.05,0,0,1-.36-.79,1.34,1.34,0,0,1,.25-.74,1.53,1.53,0,0,1,.62-.5,1,1,0,0,1,.79,0,1.37,1.37,0,0,1,1,.23,1,1,0,0,1,.45.94q1.58,1.89,3,3.72a34,34,0,0,1,2.54,3.87c.35.62.67,1.26,1,1.91s.59,1.3.86,2c0-.84,0-1.68.1-2.5s.16-1.68.27-2.54c.22-1.78.45-3.55.66-5.32a47.47,47.47,0,0,0,.36-5.37,1,1,0,0,1,.39-.88,1.34,1.34,0,0,1,.85-.3,1.36,1.36,0,0,1,.85.3,1,1,0,0,1,.39.88,45.49,45.49,0,0,1-.39,5.5c-.24,1.8-.47,3.62-.7,5.43-.1.93-.18,1.85-.25,2.74s-.08,1.82-.06,2.75.05,1.76.08,2.63,0,1.74,0,2.63a1.15,1.15,0,0,1-.29.76,1.2,1.2,0,0,1-.63.39,1.37,1.37,0,0,1-.75,0,1.24,1.24,0,0,1-.62-.5,13.76,13.76,0,0,1-1.2-2.28q-.49-1.18-.93-2.37c-.29-.76-.59-1.5-.9-2.21a22.05,22.05,0,0,0-1.06-2.12,29.84,29.84,0,0,0-1.65-2.67c-.59-.84-1.22-1.67-1.88-2.47v2.49c0,.82,0,1.65.07,2.49,0,1.49.14,3,.31,4.42s.34,2.91.52,4.38a1,1,0,0,1-.35.88,1.32,1.32,0,0,1-.86.36,1.06,1.06,0,0,1-.86-.36,1.53,1.53,0,0,1-.37-.88c-.21-1.47-.4-2.93-.56-4.38s-.27-2.93-.31-4.42c0-1.3-.06-2.59-.05-3.88S218.74,93.36,218.74,92.06Z"></path> <path class="cls-6" d="M240.85,97a13,13,0,0,1,2-.52,7.52,7.52,0,0,1,2.11-.09,5.86,5.86,0,0,1,2,.56,4.37,4.37,0,0,1,1.58,1.4,4.19,4.19,0,0,1,.74,2.86,5.08,5.08,0,0,1-.37,1.45,6.79,6.79,0,0,1-.77,1.36,13.64,13.64,0,0,1-2.29,2.51,14.44,14.44,0,0,1-2.85,1.9c-.44.23-.89.44-1.36.64a9.66,9.66,0,0,1-1.47.47,7.14,7.14,0,0,1-1.52.16,4.49,4.49,0,0,1-1.49-.26,1.09,1.09,0,0,1-.7-.6,10.41,10.41,0,0,0-.61-.88c-.21-.27-.41-.56-.61-.85a6.92,6.92,0,0,1-.54-.9,4.46,4.46,0,0,1-.34-1,4.58,4.58,0,0,1,0-2,5.28,5.28,0,0,1,.83-1.88,10.41,10.41,0,0,1,2.5-2.59A13.27,13.27,0,0,1,240.85,97Zm4,1.85a5.1,5.1,0,0,0-1.82.08,8.1,8.1,0,0,0-2,.64,11.16,11.16,0,0,0-1.77,1.05,9,9,0,0,0-1.53,1.3,3.88,3.88,0,0,0-1,1.73,1.82,1.82,0,0,0,0,1,3.85,3.85,0,0,0,.36.9,6.4,6.4,0,0,0,.57.86c.22.28.42.55.61.83a3.14,3.14,0,0,0,.63,0,.29.29,0,0,0,.16,0l.15,0a4.06,4.06,0,0,0,1.08-.27,4.36,4.36,0,0,0,.82-.31,10.62,10.62,0,0,0,1.42-.75,12.16,12.16,0,0,0,1.21-.85c.42-.33.81-.67,1.2-1a6.86,6.86,0,0,0,.94-1.07,6.33,6.33,0,0,0,.44-.7,1.26,1.26,0,0,0,.16-.29l.17-.37a.83.83,0,0,0,.1-.29.71.71,0,0,0,0-.36.39.39,0,0,0,0-.16.4.4,0,0,1,0-.16l-.08-.33c0-.08-.06-.14-.07-.18a.16.16,0,0,0-.05-.11,1.47,1.47,0,0,0-.24-.28l-.22-.19s0,0-.09-.08l-.17-.12-.3-.19-.38-.13A1.24,1.24,0,0,0,244.84,98.85Z"></path> <path class="cls-6" d="M260.73,105.19a15,15,0,0,1-1-3.68c-.11-.73-.2-1.45-.27-2.19a6,6,0,0,1,.2-2.18,9.63,9.63,0,0,1,.41-1.32c.16-.42.33-.85.49-1.28a4.53,4.53,0,0,0,.26-1,8.9,8.9,0,0,1,.24-1,5.5,5.5,0,0,1,.93-1.93,4.67,4.67,0,0,1,1.64-1.35,10.7,10.7,0,0,1,2-.84,23.42,23.42,0,0,1,4-.77,9.28,9.28,0,0,1,2,0,1.63,1.63,0,0,1,.88.37,1.06,1.06,0,0,1,.36.84,1.33,1.33,0,0,1-.36.88,1,1,0,0,1-.88.36l-.19,0h-.18a10.76,10.76,0,0,0-1.88,0,15.71,15.71,0,0,0-1.84.33l-1.05.29a7.26,7.26,0,0,0-1,.36c-.23.1-.46.22-.69.34a1.17,1.17,0,0,0-.34.22,2.66,2.66,0,0,0-.77.93,5.39,5.39,0,0,0-.3.91c-.07.32-.13.65-.2,1a5.88,5.88,0,0,1-.24.92c-.17.42-.34.84-.5,1.27A9,9,0,0,0,262,98a3.25,3.25,0,0,0-.07.93c0,.3.06.61.1.92,0,.54.11,1.1.2,1.68a11.28,11.28,0,0,0,.39,1.67,6.93,6.93,0,0,0,.66,1.53,5.22,5.22,0,0,0,1,1.29,4.79,4.79,0,0,0,1.77.94,11.65,11.65,0,0,0,2,.42,8.13,8.13,0,0,0,2.41,0,5,5,0,0,0,2.23-.87,1,1,0,0,1,.95-.13,1.25,1.25,0,0,1,.68.55,1.43,1.43,0,0,1,.19.9,1.05,1.05,0,0,1-.55.82,6.87,6.87,0,0,1-3.17,1.16,13.74,13.74,0,0,1-3.39-.07,16,16,0,0,1-2.23-.48,6.36,6.36,0,0,1-2-1A7.24,7.24,0,0,1,260.73,105.19Z"></path> <path class="cls-6" d="M277.41,109a1.41,1.41,0,0,1-.77-.55.93.93,0,0,1-.18-.9,13.55,13.55,0,0,0,.5-3c.05-1,.05-2,0-3,0-.31,0-.62,0-.92s0-.6,0-.91a1.11,1.11,0,0,1,0-.72c0-.6,0-1.2,0-1.81s0-1.22.05-1.82c0-.92.08-1.83.13-2.73s.05-1.82,0-2.75,0-1.69-.05-2.53a6.4,6.4,0,0,1,.45-2.44,1.08,1.08,0,0,1,.7-.66,1.33,1.33,0,0,1,.88.09,1.46,1.46,0,0,1,.65.65,1.1,1.1,0,0,1,0,1,3.91,3.91,0,0,0-.26,1.1,7.34,7.34,0,0,0,0,1.15c0,.4,0,.79.07,1.18s0,.77.05,1.15c0,.93-.07,1.86-.1,2.78s-.07,1.86-.11,2.79a7,7,0,0,1,2.82-.92,7,7,0,0,1,2.55.23,4.48,4.48,0,0,1,2.19,1.28,5.3,5.3,0,0,1,.84,1.22,9.71,9.71,0,0,1,.55,1.42,11.61,11.61,0,0,1,.35,1.5c.08.5.16,1,.23,1.46.13,1,.23,1.92.29,2.88s.11,1.93.14,2.93a1,1,0,0,1-.33.91,1.48,1.48,0,0,1-.85.35,1.24,1.24,0,0,1-.85-.23,1,1,0,0,1-.41-.85l-.12-2.48c0-.82-.11-1.65-.21-2.47-.08-.41-.14-.83-.19-1.26a9.34,9.34,0,0,0-.25-1.28c-.06-.21-.11-.4-.15-.6a5,5,0,0,0-.19-.59,2,2,0,0,0-.19-.51,1.8,1.8,0,0,0-.15-.3,1.06,1.06,0,0,1-.1-.17,1.16,1.16,0,0,0-.11-.16,2,2,0,0,0-.36-.31l-.23-.13a.82.82,0,0,1-.19-.09,3.58,3.58,0,0,0-.8-.25,3,3,0,0,0-.84-.06,4,4,0,0,0-1.94.51,4.75,4.75,0,0,0-1.52,1.45c.07,1.42.1,2.84.1,4.23a15.47,15.47,0,0,1-.59,4.19,1.4,1.4,0,0,1-.52.79A1.07,1.07,0,0,1,277.41,109Z"></path> <path class="cls-6" d="M292.42,108.9c.17-1,.36-2,.58-2.93a28.21,28.21,0,0,0,.48-2.92,19.7,19.7,0,0,0,0-2.87,13.2,13.2,0,0,1,.17-2.86,1,1,0,0,1,.58-.75,1.33,1.33,0,0,1,.94-.12,1.08,1.08,0,0,1,.73.59,1.73,1.73,0,0,1,.14.93,7.74,7.74,0,0,0-.11,1.45c0,.5,0,1,0,1.49a21,21,0,0,1-.19,2.85q-.18,1.48-.48,2.91t-.54,2.88a1,1,0,0,1-.59.74,1.26,1.26,0,0,1-.93.13,1.15,1.15,0,0,1-.74-.59A1.42,1.42,0,0,1,292.42,108.9Zm1.49-14.25a1.66,1.66,0,0,1-.43-.2.72.72,0,0,1-.31-.36c-.07-.16-.12-.31-.16-.43a1.4,1.4,0,0,1-.06-.43,1.82,1.82,0,0,1,.09-.56,1.29,1.29,0,0,1,.5-.81.71.71,0,0,1,.34-.27,1.49,1.49,0,0,1,.77-.24,1.21,1.21,0,0,1,.78.24l.31.26a1.16,1.16,0,0,1,.25.35l.13.35a.59.59,0,0,1,.05.37c0,.14,0,.28-.06.4a.74.74,0,0,1-.15.34,2.9,2.9,0,0,1-.25.31,2.7,2.7,0,0,1-.31.25.8.8,0,0,1-.37.18A1.53,1.53,0,0,1,293.91,94.65Z"></path> <path class="cls-6" d="M301.41,84.9a1,1,0,0,1,.86.37,1.65,1.65,0,0,1,.38.86q.3,3,.34,5.89t-.08,5.88q-.11,3-.33,5.89c-.14,2-.29,3.91-.43,5.85a1.54,1.54,0,0,1-.39.89,1.11,1.11,0,0,1-.85.35,1.32,1.32,0,0,1-.87-.35,1.09,1.09,0,0,1-.37-.89q.22-2.91.45-5.85t.34-5.89q.1-2.94.08-5.88c0-2-.14-3.92-.34-5.89a1,1,0,0,1,.34-.86A1.26,1.26,0,0,1,301.41,84.9Z"></path> <path class="cls-6" d="M309.46,96.9a14.84,14.84,0,0,1,2.4-1.17,6.82,6.82,0,0,1,2.62-.47c-.09-1.75-.15-3.5-.2-5.23s-.09-3.48-.11-5.24a1.05,1.05,0,0,1,.37-.88,1.29,1.29,0,0,1,.83-.29,1.37,1.37,0,0,1,.86.29,1.06,1.06,0,0,1,.38.88c0,2,.08,4.1.16,6.15s.16,4.11.25,6.15.14,4.09.18,6.15,0,4.1,0,6.15a1.11,1.11,0,0,1-.43.89,1.4,1.4,0,0,1-.87.32,1.31,1.31,0,0,1-.84-.3,1,1,0,0,1-.34-.91V109a2.09,2.09,0,0,1,0-.43l-.61,0H312.8c-.24,0-.48,0-.71,0-.54,0-1.07-.1-1.61-.16a6.72,6.72,0,0,1-1.58-.37,8,8,0,0,1-1.45-.76,3.55,3.55,0,0,1-1.12-1.19,8.63,8.63,0,0,1-.82-1.67,4.36,4.36,0,0,1-.26-1.86,4.9,4.9,0,0,1,.43-1.77,6.74,6.74,0,0,1,.94-1.48,8.11,8.11,0,0,1,1.31-1.24A12.4,12.4,0,0,1,309.46,96.9Zm5.3,9.17c0-2.76-.07-5.54-.19-8.33a4.53,4.53,0,0,0-2,.36,12.68,12.68,0,0,0-1.84.94c-.31.19-.65.4-1,.64a5.88,5.88,0,0,0-1,.8,4.24,4.24,0,0,0-.73,1,2.46,2.46,0,0,0-.28,1.14,4.68,4.68,0,0,0,.25,1.2,2.71,2.71,0,0,0,.59,1,2.58,2.58,0,0,0,.84.61,6,6,0,0,0,1,.32,7.36,7.36,0,0,0,1.19.16l1.19.06c.33,0,.66,0,1,0S314.4,106.07,314.76,106.07Z"></path> <path class="cls-6" d="M331.21,99.78a.93.93,0,0,1-.88-.27,1.27,1.27,0,0,1-.43-.83,1.07,1.07,0,0,1,.28-.89,1.56,1.56,0,0,1,.85-.45,38.31,38.31,0,0,0,0-4c-.06-1.32-.13-2.65-.2-4a1.42,1.42,0,0,1-.7-.36,1,1,0,0,1-.33-.74,1.29,1.29,0,0,1,.28-.91.94.94,0,0,1,.84-.43l2.33.06c.77,0,1.56.08,2.34.16a20.14,20.14,0,0,1,2.33.35,12.69,12.69,0,0,1,2.22.68,5.91,5.91,0,0,1,1.42.76A5.33,5.33,0,0,1,342.72,90a3.77,3.77,0,0,1,.65,1.39,3.17,3.17,0,0,1-.1,1.63,7.37,7.37,0,0,1-1.46,2.69,7.9,7.9,0,0,1-2.4,1.87,3.64,3.64,0,0,1-.59.3q-.3.12-.6.27a6.2,6.2,0,0,1,1,.57,10.69,10.69,0,0,1,2.06,1.85,17.66,17.66,0,0,1,1.63,2.27l.82,1.39a3.94,3.94,0,0,1,.52,1.51,2.27,2.27,0,0,1-.45,1.73,4.4,4.4,0,0,1-1.38,1.2,14.24,14.24,0,0,1-4.42,1.52,30,30,0,0,1-4.68.36,1.41,1.41,0,0,1-.85.24.9.9,0,0,1-.75-.38,1.3,1.3,0,0,1-.49-.38,1.12,1.12,0,0,1-.25-.61A1.24,1.24,0,0,1,331,109a1.22,1.22,0,0,1,.16-.37,10.15,10.15,0,0,1,0-1.91l.15-1.92a19.12,19.12,0,0,0,0-2.51c0-.83-.08-1.67-.11-2.49Zm2.59,4.78c-.05.58-.11,1.17-.17,1.77a8.92,8.92,0,0,0,0,1.79,27.59,27.59,0,0,0,3.75-.28A11.6,11.6,0,0,0,341,106.7a3.13,3.13,0,0,0,.71-.43c.09-.22.11-.36.06-.44a7.67,7.67,0,0,0-.44-.91c-.16-.29-.35-.6-.56-.93s-.4-.66-.61-1-.45-.6-.7-.89l-.34-.34-.42-.43c-.15-.13-.32-.27-.51-.41a3.9,3.9,0,0,0-.45-.29,7.24,7.24,0,0,0-1.94-.82,8,8,0,0,0-2-.26c0,.83.07,1.65.11,2.48A23,23,0,0,1,333.8,104.56Zm-.51-15.13c.07,1.24.13,2.48.19,3.73l.15,3.73c.78-.15,1.55-.33,2.33-.56a12.22,12.22,0,0,0,2.21-.86,6,6,0,0,0,.93-.55,4.75,4.75,0,0,0,.77-.62,9.15,9.15,0,0,0,.6-.8,4.86,4.86,0,0,0,.43-1c0,.06,0,0,0-.06s0-.2.05-.29V92a.67.67,0,0,0,0-.2c-.08-.2-.14-.33-.17-.39a.87.87,0,0,0-.12-.14l-.12-.15-.19-.14a2.25,2.25,0,0,0-.36-.24l-.57-.28a3.77,3.77,0,0,0-.56-.22,18.34,18.34,0,0,0-2.74-.6C335.16,89.56,334.23,89.47,333.29,89.43Z"></path> <path class="cls-6" d="M346.94,98.19a6.77,6.77,0,0,1,1.41-1.42,6.87,6.87,0,0,1,1.75-1,5.5,5.5,0,0,1,1.92-.37,5,5,0,0,1,2,.39,6.26,6.26,0,0,1,1.74,1,4.41,4.41,0,0,1,1.2,1.63,4.77,4.77,0,0,1,.41,1.61,2.31,2.31,0,0,1-.47,1.58,3.23,3.23,0,0,1-1.13,1,5.7,5.7,0,0,1-1.42.5,8.06,8.06,0,0,1-1.55.15q-.79,0-1.5,0c-.54,0-1.07-.06-1.6-.12l-1.6-.19a6.27,6.27,0,0,0,1,2.48,4.59,4.59,0,0,0,2,1.64l.53.19.16,0,.18,0,.41,0a1.17,1.17,0,0,0,.33,0l.29,0,.17,0a5.31,5.31,0,0,0,.61-.22,3.92,3.92,0,0,0,.63-.4c.13-.11.29-.26.5-.47s.38-.39.53-.56a1.51,1.51,0,0,1,.75-.58,1,1,0,0,1,.92.12,1.35,1.35,0,0,1,.57.76,1,1,0,0,1-.14.94,8.82,8.82,0,0,1-2.12,2.06,5.14,5.14,0,0,1-2.8.92,5.43,5.43,0,0,1-2.45-.45,6.87,6.87,0,0,1-2.08-1.38,8.19,8.19,0,0,1-1.76-2.51,7.59,7.59,0,0,1-.71-2.91,1.3,1.3,0,0,1-.42-.54,1.2,1.2,0,0,1-.1-.67,1.56,1.56,0,0,1,.24-.63.86.86,0,0,1,.55-.39A7.13,7.13,0,0,1,346.94,98.19Zm7.43.75a3,3,0,0,0-1.05-.78,3.62,3.62,0,0,0-1.38-.25,3.06,3.06,0,0,0-1.35.28,4.15,4.15,0,0,0-1.27,1,5.25,5.25,0,0,0-.9,1.34l1.49.19c.5.06,1,.1,1.49.12h.8q.41,0,.81,0h.23l.23,0,.42-.08a1.28,1.28,0,0,0,.3-.07l.31-.1a.69.69,0,0,0,.18-.09l.09-.06.1-.37a.91.91,0,0,1-.08-.23.54.54,0,0,0-.08-.21,1.4,1.4,0,0,0-.14-.28A3.11,3.11,0,0,0,354.37,98.94Z"></path> <path class="cls-6" d="M360.38,108.59a1.44,1.44,0,0,1-.73-.6,1,1,0,0,1-.11-.92,13.43,13.43,0,0,0,.72-2.94c.12-1,.2-2,.24-3,0-.31,0-.61,0-.91s0-.6,0-.91a1,1,0,0,1,.06-.72c0-.59.08-1.2.12-1.81s.11-1.21.19-1.81c.1-.91.21-1.81.32-2.71s.19-1.81.24-2.74.08-1.69.14-2.52a6.38,6.38,0,0,1,.63-2.41A1,1,0,0,1,363,84a1.26,1.26,0,0,1,.87.16,1.36,1.36,0,0,1,.6.69,1.1,1.1,0,0,1-.07,1,3.94,3.94,0,0,0-.34,1.09A8.47,8.47,0,0,0,364,88c0,.4,0,.79,0,1.18s0,.77,0,1.15c-.1.93-.2,1.85-.31,2.77s-.2,1.84-.31,2.77a7,7,0,0,1,2.88-.71,7.11,7.11,0,0,1,2.53.42A4.63,4.63,0,0,1,370.79,97a5,5,0,0,1,.74,1.28,8.83,8.83,0,0,1,.45,1.46,11.15,11.15,0,0,1,.23,1.52c0,.5.09,1,.13,1.47.06,1,.08,1.93.07,2.89s0,1.94-.07,2.93a1,1,0,0,1-.41.88,1.39,1.39,0,0,1-.86.3,1.31,1.31,0,0,1-.84-.3,1,1,0,0,1-.34-.88l.06-2.48c0-.82,0-1.65,0-2.48,0-.41-.07-.83-.09-1.27a8.39,8.39,0,0,0-.16-1.3c0-.2-.07-.4-.1-.6s-.08-.4-.14-.6a2.28,2.28,0,0,0-.16-.53,1.3,1.3,0,0,0-.12-.31,1.06,1.06,0,0,1-.1-.17,1,1,0,0,0-.09-.17,1.9,1.9,0,0,0-.34-.34,1.13,1.13,0,0,0-.22-.14l-.18-.11a4,4,0,0,0-.78-.31,3.08,3.08,0,0,0-.83-.12,4,4,0,0,0-2,.37A4.63,4.63,0,0,0,363,99.36q-.06,2.13-.21,4.23a15.84,15.84,0,0,1-.9,4.13,1.52,1.52,0,0,1-.57.75A1.12,1.12,0,0,1,360.38,108.59Z"></path> <path class="cls-6" d="M375.28,108.9c.16-1,.36-2,.57-2.93a23.7,23.7,0,0,0,.48-2.92,21.24,21.24,0,0,0,.05-2.87,12.6,12.6,0,0,1,.17-2.86.94.94,0,0,1,.57-.75,1.36,1.36,0,0,1,.95-.12,1.06,1.06,0,0,1,.72.59,1.64,1.64,0,0,1,.14.93,7,7,0,0,0-.1,1.45c0,.5,0,1,0,1.49a22.72,22.72,0,0,1-.18,2.85q-.19,1.48-.48,2.91c-.2,1-.38,1.91-.55,2.88a1,1,0,0,1-.58.74,1.26,1.26,0,0,1-.93.13,1.17,1.17,0,0,1-.75-.59A1.48,1.48,0,0,1,375.28,108.9Zm1.49-14.25a1.72,1.72,0,0,1-.44-.2.77.77,0,0,1-.31-.36c-.06-.16-.11-.31-.15-.43a1.38,1.38,0,0,1-.07-.43,1.84,1.84,0,0,1,.1-.56,1.28,1.28,0,0,1,.49-.81.79.79,0,0,1,.35-.27,1.43,1.43,0,0,1,.77-.24,1.16,1.16,0,0,1,.77.24,3.88,3.88,0,0,1,.31.26.9.9,0,0,1,.25.35l.14.35a.67.67,0,0,1,0,.37c0,.14,0,.28-.06.4a.89.89,0,0,1-.16.34,1.87,1.87,0,0,1-.56.56.75.75,0,0,1-.37.18A1.49,1.49,0,0,1,376.77,94.65Z"></path> <path class="cls-6" d="M381.56,106.24a20.64,20.64,0,0,1,.18-2.7c.15-1.09.29-2.18.44-3.27a22.45,22.45,0,0,0,.18-3.29,1.11,1.11,0,0,1,.37-.9,1.27,1.27,0,0,1,.84-.31,1.38,1.38,0,0,1,.87.31,1,1,0,0,1,.4.9c.81-.07,1.57-.1,2.29-.1a3.48,3.48,0,0,1,2.11.71,4.17,4.17,0,0,1,1.3,1.83,7.67,7.67,0,0,1,.43,2.17c0,.74.08,1.49.1,2.23,0,1.05.05,2.1.09,3.14s.06,2.09.06,3.15a1.06,1.06,0,0,1-.39.91,1.3,1.3,0,0,1-.83.3,1.35,1.35,0,0,1-.84-.3,1.06,1.06,0,0,1-.39-.91c0-1,0-2,0-2.91s-.07-1.92-.11-2.91c0-.54-.06-1.09-.05-1.66a6.51,6.51,0,0,0-.14-1.57c-.06-.29-.12-.54-.18-.76a2,2,0,0,0-.34-.63.52.52,0,0,0-.27-.22.86.86,0,0,0-.35-.09,5.94,5.94,0,0,0-.87.06,7.15,7.15,0,0,0-.84.19l-.37.12a1.77,1.77,0,0,0-.34.16,16.82,16.82,0,0,0-.45,2.12c-.09.67-.18,1.35-.26,2a14.7,14.7,0,0,0-.11,1.5q0,.76-.06,1.5a10.84,10.84,0,0,1-.19,1.49,5.18,5.18,0,0,1-.48,1.42,1,1,0,0,1-.74.61,1.2,1.2,0,0,1-.85-.16,1.39,1.39,0,0,1-.59-.69,1.14,1.14,0,0,1,.05-1,3,3,0,0,0,.31-1.2C381.52,107.07,381.54,106.65,381.56,106.24Z"></path> <path class="cls-6" d="M397.54,97.9a14.84,14.84,0,0,1,2.4-1.17,6.82,6.82,0,0,1,2.62-.47c-.08-1.75-.15-3.5-.2-5.23s-.09-3.48-.11-5.24a1.05,1.05,0,0,1,.37-.88,1.3,1.3,0,0,1,.84-.29,1.35,1.35,0,0,1,.85.29,1,1,0,0,1,.38.88q0,3.08.16,6.15c.08,2.06.17,4.11.25,6.15s.14,4.09.18,6.15,0,4.1,0,6.15a1.11,1.11,0,0,1-.43.89,1.4,1.4,0,0,1-.87.32,1.27,1.27,0,0,1-.83-.3,1,1,0,0,1-.35-.91V110a3.13,3.13,0,0,1,0-.43l-.61,0h-1.31q-.37,0-.72,0c-.53,0-1.07-.1-1.61-.16a6.84,6.84,0,0,1-1.58-.37,8.33,8.33,0,0,1-1.45-.76,3.55,3.55,0,0,1-1.12-1.19,8.63,8.63,0,0,1-.82-1.67,4.52,4.52,0,0,1-.26-1.86,4.9,4.9,0,0,1,.43-1.77,6.43,6.43,0,0,1,.95-1.48,7.65,7.65,0,0,1,1.3-1.24A12.4,12.4,0,0,1,397.54,97.9Zm5.3,9.17c0-2.76-.07-5.54-.19-8.33a4.53,4.53,0,0,0-2,.36,12.68,12.68,0,0,0-1.84.94c-.31.19-.65.4-1,.64a5.88,5.88,0,0,0-1,.8,4.24,4.24,0,0,0-.73,1,2.46,2.46,0,0,0-.28,1.14,5.15,5.15,0,0,0,.25,1.2,2.85,2.85,0,0,0,.59,1,2.58,2.58,0,0,0,.84.61,6,6,0,0,0,1,.32,7.36,7.36,0,0,0,1.19.16l1.19.06c.33,0,.66,0,1,0S402.49,107.07,402.84,107.07Z"></path> <path class="cls-7" d="M114.53,62.52c-6.06-1.66-6.9-.83-13-2.5S93,57.32,89.85,56.91c0,0,9.41-3.12,10.25-5.61s.84-4.16-.42-5.2-2.93-3.53-2.3-3.73,10,.62,11.29-2.91.63-7.48.63-8.94-.83-9.14-1.67-8.93-5.65,1-6.9.83A14,14,0,0,0,94.87,22c-3.35.41-5.65,3.74-7.74,3.53,0,0-2.51-.42-3.76.62s-3.56,1.46-3.14,5.2c0,0-.84,3.94-1,4.56s-1.88,6.86-2.5,7.9A20.85,20.85,0,0,0,74.79,56.7s-4.6.62-6.48.62-15.89-.2-17.15-.2c0,0-8.16-5.61-10.87-5.41s-7.53,3.54-7.74,6.45,3.14,7.47,6.69,10.18,19.45,10.38,20.7,10.8a112.38,112.38,0,0,0,11.3,2.91c2.09.2,9.83,1.66,13.17,1.66s11.5-.42,13.8-.21,5.23,1.87,8.37-.83,8.58-7.48,9.83-8.1,5.86-4.57,5.65-7.69c0,0-1.46-2.7-7.53-4.36m-30.85-9a12.8,12.8,0,0,1-3.24.62c-.73-.1-.52-3.63-.42-4.67A34.94,34.94,0,0,1,81.7,44c.41-1,2.4-6,2.71-7.38s1.36-.93,1.36-.93c1.15.41,3,4.77,4.29,6.54S93.2,45.9,93.61,48s-1.88,2.61-3.34,3.43a32.18,32.18,0,0,1-6.59,2.08"></path> <path class="cls-3" d="M88.81,28.65a5.33,5.33,0,0,0,.94,2.91c1,1.77,5.44,6.65,6.16,6.54a51.66,51.66,0,0,0,5.76-.52c3.24-.51,4.08-.72,4.08-3.32s-.21-4.16-.11-4.67.52-3-.63-3.12-4.81.73-5.54.73S93.82,28,93,28s-3.45-.52-4.18.62"></path> </g> </g> </svg> 